<svg xmlns="http://www.w3.org/2000/svg" width="192" height="192" viewBox="0 0 192 192" version="1.1"><path d="M 56.687 67.805 C 52.815 71.846, 52.973 76.958, 57.077 80.411 C 61.244 83.918, 65.350 83.803, 69.077 80.077 C 73.007 76.147, 73.007 71.853, 69.077 67.923 C 65.134 63.981, 60.394 63.935, 56.687 67.805 M 122.923 67.923 C 120.928 69.918, 120 71.848, 120 74 C 120 78.302, 124.698 83, 129 83 C 133.302 83, 138 78.302, 138 74 C 138 71.848, 137.072 69.918, 135.077 67.923 C 131.147 63.993, 126.853 63.993, 122.923 67.923" stroke="none" fill="#f2f3f2" fill-rule="evenodd"/><path d="M 38.238 16.162 C 35.657 18.743, 36.840 24.333, 41.600 32.046 C 50.124 45.859, 49.938 44.587, 44.168 49.635 C 33.857 58.654, 26.056 71.303, 21.304 86.703 C 18.599 95.473, 18.589 95.611, 18.261 131.500 C 17.945 165.988, 18.015 167.634, 19.918 170.696 C 24.413 177.927, 19.635 177.500, 96 177.500 C 172.367 177.500, 167.637 177.923, 172.044 170.696 C 173.868 167.704, 173.992 165.462, 173.989 135.500 C 173.987 117.900, 173.526 100.671, 172.965 97.214 C 170.128 79.731, 162.321 64.224, 150.309 52.212 C 146.219 48.122, 143.071 44.263, 143.313 43.638 C 143.556 43.012, 146.285 38.474, 149.377 33.553 C 155.279 24.162, 156.608 18.580, 153.548 16.040 C 150.689 13.667, 148.457 15.643, 141.442 26.752 C 137.541 32.929, 134.130 38.204, 133.861 38.473 C 133.592 38.742, 130.108 37.591, 126.119 35.915 C 116.285 31.783, 107.330 30.035, 96 30.035 C 84.670 30.035, 75.715 31.783, 65.881 35.915 C 61.892 37.591, 58.408 38.742, 58.139 38.473 C 57.870 38.204, 54.458 32.925, 50.556 26.742 C 43.453 15.485, 41.012 13.388, 38.238 16.162 M 56.687 67.805 C 52.815 71.846, 52.973 76.958, 57.077 80.411 C 61.244 83.918, 65.350 83.803, 69.077 80.077 C 73.007 76.147, 73.007 71.853, 69.077 67.923 C 65.134 63.981, 60.394 63.935, 56.687 67.805 M 122.923 67.923 C 120.928 69.918, 120 71.848, 120 74 C 120 78.302, 124.698 83, 129 83 C 133.302 83, 138 78.302, 138 74 C 138 71.848, 137.072 69.918, 135.077 67.923 C 131.147 63.993, 126.853 63.993, 122.923 67.923" stroke="none" fill="#8fc350" fill-rule="evenodd"/></svg>